<?xml version="1.0" standalone="no"?>
<!DOCTYPE svg PUBLIC "-//W3C//DTD SVG 20010904//EN"
 "http://www.w3.org/TR/2001/REC-SVG-20010904/DTD/svg10.dtd">
<svg version="1.0" xmlns="http://www.w3.org/2000/svg"
 width="469.000000pt" height="532.000000pt" viewBox="0 0 469.000000 532.000000"
 preserveAspectRatio="xMidYMid meet">

<g transform="translate(0.000000,532.000000) scale(0.100000,-0.100000)"
fill="#000000" stroke="none">
<path d="M1865 5076 c-80 -33 -165 -122 -191 -198 -36 -108 -18 -218 47 -292
76 -86 182 -117 290 -84 87 25 159 123 159 213 0 62 -19 103 -69 148 -36 32
-47 37 -92 37 -81 0 -119 -28 -119 -86 0 -32 38 -51 68 -35 76 41 139 -46 88
-123 -51 -79 -156 -87 -229 -18 -42 40 -57 75 -57 133 0 98 65 178 174 215
140 48 310 -60 340 -215 9 -50 -12 -160 -40 -208 -13 -23 -49 -69 -78 -101
-97 -104 -132 -201 -124 -342 7 -108 41 -163 92 -144 24 9 29 45 16 110 -14
66 -6 151 19 210 10 22 48 74 85 115 37 41 76 90 86 109 107 208 33 450 -165
545 -49 24 -76 29 -150 32 -78 3 -98 0 -150 -21z"/>
<path d="M2412 4498 c-7 -7 -12 -25 -12 -40 0 -21 9 -33 38 -52 54 -34 66 -52
66 -104 0 -54 -23 -96 -65 -118 -38 -19 -62 -18 -82 4 -23 25 -22 29 13 68 31
35 31 58 2 82 -27 21 -54 13 -94 -28 -34 -36 -38 -46 -38 -92 0 -87 64 -148
153 -148 188 0 289 246 159 383 -49 52 -113 72 -140 45z"/>
<path d="M1803 4324 c-127 -63 -127 -267 1 -325 53 -24 89 -24 111 1 29 32 11
69 -45 89 -67 25 -84 75 -42 124 8 9 28 17 44 17 29 0 68 30 68 53 0 7 -7 23
-16 35 -18 27 -73 29 -121 6z"/>
<path d="M1975 3808 c-326 -4 -589 -12 -602 -17 -17 -8 -23 -22 -29 -67 -10
-80 4 -293 23 -356 49 -166 167 -305 333 -392 l68 -36 315 0 315 0 69 36 c37
20 95 57 128 82 l60 47 155 5 c132 5 162 9 200 28 114 55 180 154 180 270 0
84 -14 129 -59 188 -48 64 -126 104 -215 111 l-66 6 0 33 c0 21 -8 42 -20 54
-19 19 -31 21 -148 18 -70 -1 -388 -6 -707 -10z m-385 -147 c5 -11 10 -50 10
-88 1 -145 46 -269 139 -381 41 -49 145 -131 186 -146 5 -2 7 -7 3 -11 -9 -10
-139 30 -203 62 -66 34 -162 133 -203 211 -37 69 -61 178 -62 279 0 89 3 93
66 93 42 0 55 -4 64 -19z m1401 -104 c96 -65 107 -190 23 -269 -41 -38 -75
-48 -166 -48 -73 0 -79 2 -72 18 31 70 66 195 71 253 l6 69 52 0 c38 0 61 -6
86 -23z"/>
<path d="M2538 2856 c-1 -2 -291 -7 -643 -10 -694 -8 -677 -6 -691 -63 -6 -21
-2 -31 21 -51 27 -23 32 -23 121 -17 124 10 160 3 169 -33 3 -15 14 -35 22
-44 15 -17 51 -17 547 -12 579 7 550 4 570 66 l11 33 137 5 c151 7 168 13 168
65 0 62 -14 66 -233 65 -107 -1 -197 -3 -199 -4z"/>
<path d="M3672 2377 c-9 -10 -9 -36 -1 -98 5 -46 12 -85 14 -88 11 -10 26 60
28 124 2 56 -1 70 -14 73 -9 1 -21 -3 -27 -11z"/>
<path d="M260 2292 c0 -5 11 -19 25 -32 14 -13 35 -48 47 -79 23 -55 23 -62
21 -459 -1 -384 -2 -405 -23 -467 -12 -36 -37 -88 -55 -115 l-34 -50 183 0
c100 0 186 3 189 6 4 4 -4 20 -17 35 -13 16 -35 59 -48 96 -21 62 -23 85 -23
258 l0 190 85 3 c95 3 152 -13 190 -53 13 -14 27 -25 32 -25 4 0 8 46 8 103
l0 104 -45 -43 c-51 -49 -77 -56 -190 -52 l-79 3 3 270 c1 149 6 274 11 279 5
5 66 6 137 4 139 -6 216 -27 272 -74 16 -13 32 -24 35 -24 6 0 9 119 4 121
-20 6 -728 8 -728 1z"/>
<path d="M1507 1919 c-46 -11 -89 -32 -106 -53 -21 -25 -33 -19 -26 14 5 22 3
32 -8 36 -8 3 -62 -15 -121 -40 -59 -25 -110 -46 -114 -46 -4 0 -13 -4 -21 -9
-11 -7 -8 -16 16 -47 58 -74 68 -120 68 -314 0 -159 -3 -180 -23 -233 -13 -31
-34 -70 -48 -86 -13 -16 -24 -34 -24 -40 0 -8 55 -11 180 -11 99 0 180 2 180
6 0 3 -11 22 -25 42 -49 72 -65 149 -65 316 0 224 20 332 69 385 79 84 171 35
179 -96 4 -58 6 -63 28 -63 39 0 75 40 81 90 4 39 0 50 -27 83 -51 61 -118 84
-193 66z"/>
<path d="M2055 1920 c-136 -17 -231 -129 -191 -224 18 -44 55 -68 98 -64 29 3
33 6 30 28 -2 14 -5 56 -5 93 -2 67 -1 69 35 103 33 30 44 34 90 34 68 0 113
-27 138 -83 48 -105 12 -155 -154 -217 -132 -49 -204 -99 -246 -173 -35 -62
-46 -119 -31 -174 27 -99 99 -153 206 -153 73 0 127 23 188 79 24 23 47 41 50
41 2 0 8 -15 11 -33 12 -67 72 -96 194 -97 66 0 74 6 43 34 -11 10 -29 41 -42
69 -22 48 -24 70 -29 302 -6 276 -12 306 -78 371 -50 51 -188 80 -307 64z
m222 -435 c-8 -202 -36 -276 -116 -308 -100 -40 -195 60 -172 180 13 67 54
117 154 191 50 38 98 76 106 85 28 35 34 6 28 -148z"/>
<path d="M3103 1908 c-43 -9 -81 -39 -120 -93 l-22 -30 -1 63 c0 34 -4 62 -8
62 -5 0 -51 -18 -103 -39 -52 -22 -111 -46 -133 -55 l-38 -16 30 -34 c16 -19
40 -61 52 -93 20 -53 21 -72 17 -233 -4 -192 -11 -224 -62 -300 -19 -29 -35
-54 -35 -56 0 -2 83 -4 185 -4 117 0 185 4 185 10 0 6 -4 10 -10 10 -14 0 -55
78 -75 143 -14 49 -16 89 -14 260 4 200 4 202 32 249 51 88 119 118 187 83 74
-38 96 -133 87 -380 -6 -181 -19 -236 -72 -315 -19 -29 -35 -54 -35 -56 0 -2
83 -4 185 -4 l186 0 -29 43 c-58 84 -65 121 -72 377 -6 258 -9 269 -74 338
-59 64 -153 91 -243 70z"/>
<path d="M3810 1853 l0 -67 28 27 c51 49 117 71 230 75 74 3 102 1 102 -7 0
-7 -85 -188 -190 -403 -104 -215 -190 -393 -190 -395 0 -2 129 -2 288 -1 l287
3 3 68 c2 37 1 67 -2 67 -2 0 -19 -15 -38 -34 -46 -46 -144 -76 -249 -76 -43
0 -79 2 -79 4 0 2 34 75 76 162 42 88 89 186 104 219 15 33 66 139 114 235 47
96 86 178 86 182 0 4 -128 8 -285 8 l-285 0 0 -67z"/>
<path d="M1073 870 c-49 -20 -57 -52 -54 -232 l1 -108 35 0 35 0 0 103 c1 131
6 207 15 230 8 19 1 20 -32 7z"/>
<path d="M1158 841 c2 -16 -1 -32 -7 -35 -17 -11 -1 -36 23 -36 46 0 61 45 26
80 -29 29 -47 26 -42 -9z"/>
<path d="M1399 844 c-23 -24 -24 -33 -27 -170 l-3 -144 36 0 c19 0 38 6 40 13
2 6 6 83 7 170 3 137 1 157 -13 157 -8 0 -26 -12 -40 -26z"/>
<path d="M1512 843 c0 -16 -3 -38 -7 -49 -9 -29 21 -40 46 -18 24 22 24 56 1
77 -27 25 -41 21 -40 -10z"/>
<path d="M300 808 c-107 -73 -84 -235 38 -272 l22 -7 -21 36 c-30 51 -31 166
-1 224 25 48 14 54 -38 19z"/>
<path d="M430 804 c1 -16 -2 -41 -5 -56 -6 -20 -3 -27 13 -32 24 -8 49 1 56
21 8 20 -14 63 -42 81 -22 14 -23 14 -22 -14z"/>
<path d="M2636 789 c-3 -17 -6 -85 -6 -150 l0 -119 40 0 40 0 1 68 c0 37 1
103 2 147 l2 80 -36 3 c-34 3 -37 1 -43 -29z"/>
<path d="M2838 813 c-19 -5 -18 4 -20 -210 l-1 -78 35 -3 35 -3 6 53 c4 29 7
94 7 144 0 104 -5 112 -62 97z"/>
<path d="M670 720 c-29 -31 -44 -78 -33 -107 10 -29 55 -73 75 -73 16 0 17 3
7 21 -12 23 -8 140 6 172 12 29 -24 21 -55 -13z"/>
<path d="M782 713 c10 -37 6 -116 -7 -160 -11 -34 11 -29 51 11 26 26 34 42
34 70 0 48 -22 89 -55 104 -35 16 -35 17 -23 -25z"/>
<path d="M1744 716 c-30 -30 -34 -40 -34 -84 0 -44 4 -54 31 -76 36 -30 101
-35 137 -10 30 21 28 36 -3 22 -70 -32 -123 70 -80 152 14 27 14 30 -1 30 -9
0 -31 -15 -50 -34z"/>
<path d="M1839 743 c-4 -26 5 -69 15 -75 24 -16 56 -9 56 12 0 33 -67 91 -71
63z"/>
<path d="M2093 717 c-31 -29 -36 -40 -37 -80 -1 -38 4 -51 28 -76 24 -25 38
-31 74 -31 48 0 77 12 85 34 5 13 2 13 -18 4 -35 -16 -71 -3 -85 31 -12 30
-10 101 4 134 13 28 -11 20 -51 -16z"/>
<path d="M2184 734 c3 -9 6 -29 6 -45 0 -27 3 -29 35 -29 27 0 35 4 35 18 -1
22 -19 45 -47 60 -29 16 -36 15 -29 -4z"/>
<path d="M3084 706 c-29 -29 -34 -41 -34 -79 0 -36 6 -51 29 -76 16 -17 33
-31 38 -31 5 0 9 39 9 88 0 48 3 97 8 110 12 33 -10 28 -50 -12z"/>
<path d="M3192 710 c11 -32 7 -142 -7 -172 -5 -13 -3 -18 10 -18 24 0 71 54
79 91 8 41 -18 95 -55 114 -38 20 -40 19 -27 -15z"/>
<path d="M3426 724 c-11 -29 -6 -170 7 -186 17 -22 53 -28 74 -12 11 8 13 13
6 14 -10 0 -13 27 -13 100 l0 100 -34 0 c-22 0 -36 -6 -40 -16z"/>
<path d="M3568 728 c-3 -30 -6 -67 -9 -122 -2 -51 1 -61 20 -77 23 -19 67 -13
65 10 -1 6 -2 54 -2 106 l-2 95 -35 0 c-20 0 -36 -5 -37 -12z"/>
<path d="M3825 715 c-14 -13 -25 -28 -25 -33 0 -17 26 -43 75 -75 41 -27 50
-38 48 -60 -1 -18 3 -27 13 -27 16 0 64 43 64 58 0 18 -28 45 -75 71 -45 24
-50 30 -49 59 2 39 -17 42 -51 7z"/>
<path d="M4267 734 c-2 -2 -1 -21 2 -42 6 -33 10 -37 39 -40 26 -3 32 0 32 15
0 26 -25 59 -49 66 -11 3 -22 3 -24 1z"/>
<path d="M3934 698 c1 -28 5 -33 26 -33 30 0 38 26 15 49 -27 26 -43 20 -41
-16z"/>
<path d="M4172 708 c-72 -77 -29 -188 73 -188 28 0 51 7 66 20 l24 20 -41 -6
c-36 -5 -43 -3 -62 21 -24 30 -30 101 -12 136 16 28 -20 26 -48 -3z"/>
<path d="M3800 590 c-9 -17 -6 -25 14 -45 31 -31 43 -32 44 -2 0 12 1 27 2 32
9 39 -41 51 -60 15z"/>
</g>
</svg>
